<?xml version="1.0" encoding="utf-8"?>
<!-- Generator: Adobe Illustrator 16.0.0, SVG Export Plug-In . SVG Version: 6.00 Build 0)  -->
<!DOCTYPE svg PUBLIC "-//W3C//DTD SVG 1.1//EN" "http://www.w3.org/Graphics/SVG/1.1/DTD/svg11.dtd">
<svg version="1.1" id="dry" xmlns="http://www.w3.org/2000/svg" xmlns:xlink="http://www.w3.org/1999/xlink" x="0px" y="0px"
	 width="51.55px" height="39.195px" viewBox="0 0 51.55 39.195" enable-background="new 0 0 51.55 39.195" xml:space="preserve">
<path id="Path_34" fill="#C82B22" d="M4.861,33.776c-0.146,2.843,2.041,5.267,4.884,5.413c0.175,0.009,0.351,0.009,0.526,0
	c2.986-0.146,5.288-2.686,5.141-5.672c-0.136-2.781-2.36-5.005-5.141-5.142c-2.843-0.146-5.267,2.041-5.413,4.885
	c-0.009,0.171-0.009,0.344,0,0.516H4.861z M7.696,33.776c0-1.424,1.154-2.578,2.578-2.578s2.578,1.154,2.578,2.578
	s-1.154,2.578-2.578,2.578c-0.001,0-0.002,0-0.003,0c-1.326,0.096-2.479-0.9-2.575-2.227C7.688,34.01,7.688,33.893,7.696,33.776
	L7.696,33.776z"/>
<path id="Path_35" fill="#C82B22" d="M35.569,33.776c0,2.989,2.424,5.413,5.413,5.413c2.99,0,5.413-2.424,5.413-5.413
	s-2.423-5.413-5.413-5.413c-2.918-0.072-5.341,2.234-5.413,5.151C35.567,33.601,35.567,33.689,35.569,33.776z M38.404,33.776
	c0-1.424,1.153-2.579,2.577-2.579c1.424-0.001,2.579,1.153,2.579,2.577s-1.153,2.578-2.577,2.579c-0.001,0-0.001,0-0.001,0
	c-1.326,0.091-2.475-0.911-2.566-2.237c-0.007-0.113-0.007-0.227,0.002-0.34H38.404z"/>
<path id="Path_36" d="M0,17.802v16.238h3.351v-0.772c-0.104-3.74,2.844-6.855,6.583-6.959c0.125-0.004,0.25-0.004,0.375,0h0.516
	c2.13,0.093,4.07,1.256,5.155,3.093c0.843,1.21,1.293,2.649,1.289,4.124v1.031h16.237v-1.289c-0.018-3.968,3.183-7.198,7.149-7.218
	c0.022,0,0.046,0,0.068,0c4.016-0.11,7.361,3.055,7.472,7.07c0.002,0.049,0.003,0.098,0.004,0.147v0.772h3.35V0H16.238v7.733h-6.186
	L0,17.802z M5.413,18.061l6.7-6.209H16.5v7.753H5.413V18.061z"/>
<path id="Path_37" fill="#C82B22" d="M42.24,12.862h-1.395l0.629-0.629c0.165-0.166,0.165-0.435,0-0.601
	c-0.167-0.162-0.434-0.162-0.6,0l-1.201,1.2H37.63l0.9-0.981c0.156-0.175,0.145-0.441-0.027-0.601
	c-0.074-0.062-0.164-0.1-0.258-0.11h-1.201l1.338-1.339h1.693c0.221,0.006,0.404-0.168,0.409-0.39c0.001-0.007,0.001-0.013,0-0.02
	c-0.007-0.224-0.187-0.402-0.409-0.407h-0.849L40.212,8c0.176-0.155,0.191-0.425,0.035-0.6c-0.156-0.176-0.425-0.191-0.6-0.035
	c-0.014,0.011-0.025,0.022-0.036,0.035l-1.009,1.01V7.537c0.006-0.221-0.169-0.404-0.39-0.41c-0.007,0-0.014,0-0.021,0
	c-0.225,0.006-0.404,0.187-0.41,0.41v1.719l-1.392,1.396l-0.028-1.289l0,0c0.006-0.103-0.033-0.202-0.107-0.273
	c-0.166-0.165-0.435-0.165-0.601,0l-0.899,0.846V7.975l1.199-1.2c0.166-0.166,0.166-0.435,0-0.601c-0.166-0.162-0.433-0.162-0.6,0
	l-0.6,0.601V5.41c0.006-0.221-0.17-0.404-0.391-0.41c-0.006,0-0.014,0-0.02,0c-0.225,0.006-0.404,0.186-0.41,0.41v1.361l-0.6-0.601
	c-0.156-0.175-0.425-0.191-0.601-0.035C32.56,6.292,32.544,6.56,32.7,6.736c0.011,0.012,0.022,0.023,0.035,0.035l1.2,1.2v1.995
	l-0.9-0.874c-0.152-0.159-0.406-0.164-0.565-0.011c-0.013,0.012-0.023,0.024-0.034,0.037c-0.053,0.064-0.09,0.139-0.111,0.219v1.313
	l-1.42-1.396V7.591c0-0.226-0.184-0.409-0.41-0.409s-0.41,0.184-0.41,0.409v0.849l-0.959-0.956c-0.175-0.156-0.443-0.141-0.6,0.035
	c-0.143,0.161-0.143,0.403,0,0.564l0.982,0.982h-0.9c-0.221-0.006-0.404,0.169-0.41,0.39c0,0.007,0,0.014,0,0.021
	c0.006,0.224,0.186,0.404,0.41,0.409h1.719l1.393,1.393l-1.289,0.057c-0.225,0.014-0.408,0.185-0.436,0.407
	c-0.016,0-0.029,0.013-0.029,0.028h0.029c0.004,0.113,0.054,0.221,0.137,0.3l0.899,0.874h-1.935l-1.191-1.213
	c-0.176-0.156-0.443-0.141-0.6,0.035c-0.143,0.161-0.143,0.403,0,0.564l0.629,0.629h-1.42c-0.221-0.005-0.405,0.169-0.41,0.39
	c0,0.007,0,0.014,0,0.021c0.005,0.225,0.186,0.405,0.41,0.41h1.392l-0.6,0.6c-0.163,0.167-0.163,0.434,0,0.601
	c0.146,0.165,0.399,0.182,0.564,0.035c0.013-0.011,0.024-0.022,0.035-0.035l1.2-1.2h1.971l-0.85,0.931
	c-0.156,0.174-0.145,0.44,0.025,0.601c0.074,0.07,0.172,0.11,0.273,0.11h1.23l-1.42,1.418H28.61
	c-0.221-0.005-0.404,0.169-0.409,0.39c-0.001,0.007-0.001,0.014,0,0.021c0.004,0.226,0.185,0.407,0.409,0.412h0.874L28.5,18.646
	c-0.163,0.167-0.163,0.433,0,0.6c0.078,0.082,0.186,0.131,0.299,0.137c0.115-0.005,0.223-0.054,0.301-0.137l0.956-0.956v0.845
	c-0.001,0.227,0.183,0.41,0.409,0.411c0.227,0,0.41-0.184,0.41-0.41c0,0,0,0,0-0.001v-1.688l1.42-1.418l0.055,1.363
	c0.001,0.227,0.186,0.409,0.412,0.408c0.088-0.001,0.172-0.029,0.242-0.082l0.875-0.873v1.994l-1.172,1.17
	c-0.166,0.166-0.166,0.435,0,0.601c0.077,0.084,0.186,0.133,0.299,0.137c0.115-0.005,0.223-0.054,0.301-0.137l0.572-0.601v1.4
	c0,0.227,0.183,0.41,0.409,0.41s0.41-0.183,0.411-0.409V21.41v-1.432l0.629,0.626c0.077,0.083,0.186,0.133,0.299,0.137
	c0.115-0.005,0.223-0.054,0.301-0.137c0.162-0.167,0.162-0.434,0-0.601l-1.229-1.229v-1.982c0,0,0.772,0.737,0.899,0.849
	c0.087,0.108,0.214,0.178,0.353,0.19l0,0c0.227,0.001,0.41-0.183,0.411-0.409c0-0.01,0-0.019-0.001-0.028l-0.025-1.338l1.363,1.365
	v1.72c-0.006,0.221,0.169,0.404,0.391,0.409c0.006,0.001,0.013,0.001,0.02,0c0.225-0.005,0.404-0.186,0.41-0.409v-0.9l1.01,1.01
	c0.146,0.166,0.398,0.182,0.564,0.036c0.013-0.012,0.025-0.023,0.035-0.036c0.166-0.166,0.166-0.434,0-0.6l-0.977-0.992h0.846
	c0.221,0.006,0.404-0.169,0.41-0.39c0-0.007,0-0.014,0-0.021c-0.006-0.224-0.187-0.404-0.41-0.41h-1.662l-1.449-1.445l1.289-0.055
	l0,0c0.219-0.029,0.383-0.216,0.384-0.438c-0.009-0.127-0.068-0.245-0.165-0.327l-0.773-0.773h1.967l1.201,1.2
	c0.078,0.082,0.186,0.132,0.299,0.138c0.115-0.006,0.223-0.055,0.301-0.138c0.165-0.166,0.165-0.434,0-0.6l-0.6-0.601h1.366
	c0.222,0.006,0.405-0.168,0.41-0.39c0-0.007,0-0.013,0-0.02C42.675,13.053,42.485,12.862,42.24,12.862z M37.275,12.01l-0.791,0.849
	h-1.098l0.845-0.849H37.275z M35.548,10.349l0.021,1.124l-0.82,0.791v-1.179L35.548,10.349z M33.149,10.349l0.791,0.736v1.16
	l-0.791-0.791V10.349z M31.43,12.071l1.118-0.028l0.82,0.82h-1.15L31.43,12.071z M31.457,14.499l0.733-0.789h1.175l-0.773,0.773
	L31.457,14.499z M33.178,16.299l-0.054-1.175l0.791-0.791v1.177L33.178,16.299z M35.578,16.271l-0.82-0.773v-1.244l0.813,0.827
	L35.578,16.271z M37.271,14.441l-1.093,0.027l-0.773-0.772h1.147L37.271,14.441z"/>
</svg>
