<?xml version="1.0" encoding="utf-8"?>
<!-- Generator: Adobe Illustrator 16.0.0, SVG Export Plug-In . SVG Version: 6.00 Build 0)  -->
<!DOCTYPE svg PUBLIC "-//W3C//DTD SVG 1.1//EN" "http://www.w3.org/Graphics/SVG/1.1/DTD/svg11.dtd">
<svg version="1.1" id="recurring" xmlns="http://www.w3.org/2000/svg" xmlns:xlink="http://www.w3.org/1999/xlink" x="0px" y="0px"
	 width="51px" height="44.961px" viewBox="0 0 51 44.961" enable-background="new 0 0 51 44.961" xml:space="preserve">
<path id="Path_10" d="M13.033,0v14.742h15.748V0H13.033z"/>
<path id="Path_11" d="M0,37.575h20.022v-4.06H0V37.575z"/>
<path id="Path_12" d="M22.036,37.575h7.292v-4.06h-7.384v4.06H22.036z"/>
<path id="Path_13" d="M0,43.186h6.367v-3.819H0V43.186z"/>
<path id="Path_14" d="M17.548,43.186h6.961v-3.819h-6.961V43.186z"/>
<path id="Path_15" d="M20.052,16.94v14.069H3.846V16.94H20.052z"/>
<path id="Path_16" d="M38.059,16.94v4.269l-6.438,3.057l-4.06,6.743h-5.494V17.093C22.036,16.94,38.059,16.94,38.059,16.94z"/>
<path id="Path_17" fill="#C82B22" d="M38.243,19.443c-6.981,0.078-12.623,5.719-12.7,12.7c0.115,6.986,5.716,12.639,12.7,12.819
	c7.046-0.063,12.706-5.825,12.645-12.87c-0.062-6.958-5.687-12.583-12.645-12.645V19.443z M38.061,28.385
	c-2.36-0.063-4.324,1.8-4.387,4.16c-0.063,2.359,1.801,4.322,4.16,4.385c0.075,0.002,0.15,0.002,0.227,0
	c1.241,0.047,2.435-0.482,3.234-1.434l2.77,1.23c-1.392,2.146-3.812,3.4-6.367,3.299c-4.284-0.02-7.748-3.496-7.75-7.78
	c-0.07-4.212,3.288-7.681,7.499-7.751c1.956-0.031,3.849,0.688,5.288,2.013l2.472-1.8l0.458,8.759l-8.453-3.056l2.471-1.801
	c-0.061-0.213-0.853-0.213-1.617-0.213L38.061,28.385z"/>
</svg>
