<?xml version="1.0" encoding="utf-8"?>
<!-- Generator: Adobe Illustrator 16.0.0, SVG Export Plug-In . SVG Version: 6.00 Build 0)  -->
<!DOCTYPE svg PUBLIC "-//W3C//DTD SVG 1.1//EN" "http://www.w3.org/Graphics/SVG/1.1/DTD/svg11.dtd">
<svg version="1.1" id="download_3_" xmlns="http://www.w3.org/2000/svg" xmlns:xlink="http://www.w3.org/1999/xlink" x="0px"
	 y="0px" width="51px" height="49px" viewBox="0 0 51 49" enable-background="new 0 0 51 49" xml:space="preserve">
<path id="Path_26" d="M12.416,0v16.335h17.261V0H12.416z"/>
<path id="Path_27" d="M0,41.287h21.883v-4.613H0V41.287z"/>
<path id="Path_28" d="M19.634,41.287h8.013v-4.613h-8.013V41.287z"/>
<path id="Path_29" d="M0,47.462h7.089v-4.313H0V47.462z"/>
<path id="Path_30" d="M17.484,47.462h7.7v-4.313h-7.7V47.462z"/>
<path id="Path_31" d="M21.883,18.492V33.9H4.314V18.492H21.883z"/>
<path id="Path_32" d="M38.88,18.492v4.61l-7.089,3.391L27.182,33.9h-6.156V18.492H38.88z"/>
<path id="Path_33" fill="#C82B22" d="M37.133,21.265c-7.627,0.077-13.791,6.241-13.868,13.868
	c0.186,7.58,6.288,13.682,13.868,13.867c7.58-0.186,13.682-6.287,13.867-13.867C50.923,27.506,44.76,21.342,37.133,21.265z
	 M42.373,41.287h-6.782v3.077l-7.7-4.622l7.7-4.61v2.772h6.781L42.373,41.287z M39.296,35.739v-3.077h-6.784v-3.077h6.778v-3.388
	l7.7,4.621L39.296,35.739z"/>
</svg>
