<?xml version="1.0" encoding="utf-8"?>
<!-- Generator: Adobe Illustrator 16.0.0, SVG Export Plug-In . SVG Version: 6.00 Build 0)  -->
<!DOCTYPE svg PUBLIC "-//W3C//DTD SVG 1.1//EN" "http://www.w3.org/Graphics/SVG/1.1/DTD/svg11.dtd">
<svg version="1.1" id="Layer_1" xmlns="http://www.w3.org/2000/svg" xmlns:xlink="http://www.w3.org/1999/xlink" x="0px" y="0px"
	 width="120.852px" height="34.75px" viewBox="0 0 120.852 34.75" enable-background="new 0 0 120.852 34.75" xml:space="preserve">
<path id="Path_1" d="M21.191,25.186V6.902c0.13-0.521-0.187-1.049-0.708-1.18c-0.085-0.021-0.172-0.031-0.259-0.029h-8.961
	c-4.964-0.118-6.647,0-7.855,0.725c-1.088,0.484-2.417,4.834-2.417,5.209L0.87,12.352l2.061,0.121
	c0.195,0.012,0.351,0.167,0.362,0.363c-0.41,2.243-0.703,4.506-0.876,6.78c-0.009,0.131-0.112,0.233-0.242,0.242l-2.06,0.846H0
	v5.571h1.209c0.13,0.009,0.233,0.112,0.242,0.242v2.417c-0.009,0.13-0.112,0.233-0.242,0.242L0,29.295v0.725
	c0.022,0.373,0.104,0.74,0.242,1.088c0.242,0.363,0.363,0.725,0.846,0.967c0.386,0.402,0.898,0.658,1.45,0.725h5.813
	c-1.141-2.695,0.087-5.809,2.761-7c2.455-1.138,5.368-0.07,6.507,2.385c0.121,0.264,0.22,0.536,0.293,0.816
	c0.322,1.254,0.28,2.574-0.121,3.807h0.363c0.421-0.137,0.711-0.523,0.725-0.967v-5.2C19.01,25.911,21.191,25.549,21.191,25.186z
	 M10.532,17.935c-0.009,0.13-0.112,0.233-0.242,0.241c-2.026,0.18-4.043,0.463-6.042,0.847c-0.121,0-0.242-0.121-0.363-0.241
	c-0.058-2.163,0.187-4.323,0.726-6.417c0-0.121,0.121-0.242,0.363-0.242h5.438c0.121,0.121,0.242,0.242,0.242,0.363L10.532,17.935z
	 M17.922,16.358c0.026,0.175-0.095,0.337-0.27,0.363c-0.031,0.004-0.063,0.004-0.093,0H14.5c-0.175,0.025-0.337-0.096-0.362-0.271
	c-0.005-0.031-0.005-0.062,0-0.093v-4.006c-0.026-0.175,0.095-0.337,0.27-0.363c0.031-0.005,0.063-0.005,0.093,0h3.021
	c0.175-0.026,0.337,0.095,0.362,0.27c0.005,0.031,0.005,0.062,0,0.093L17.922,16.358z M24.46,27.609h3.148v4.966H24.46V27.609z
	 M31.971,28.209v3.625c0,0.363-0.242,0.726-0.847,0.726h-2.671v-4.957H31c0.481,0.006,0.972,0.248,0.972,0.61V28.209z
	 M20.949,27.609h2.544v4.966h-2.664c-0.242,0-0.725-0.121-0.725-0.482V28.34c0.006-0.346,0.188-0.665,0.482-0.846
	C20.829,27.609,20.829,27.609,20.949,27.609z M37.415,26.521c-2.253,0.021-4.063,1.862-4.042,4.115
	c0.02,2.253,1.862,4.063,4.114,4.042c2.253-0.02,4.063-1.861,4.043-4.115c-0.01-1.068-0.438-2.092-1.195-2.848
	C39.559,26.945,38.509,26.515,37.415,26.521z M37.415,33.168c-1.405,0-2.544-1.139-2.544-2.545c0-1.404,1.139-2.543,2.544-2.543
	s2.544,1.139,2.544,2.543l0,0c0.041,1.371-1.037,2.516-2.408,2.557c-0.045,0.001-0.09,0.001-0.136,0V33.168z M54.733,29.542v1.701
	h-2.665c0.155-1.033-0.014-2.089-0.483-3.021h1.088L54.733,29.542z M46.878,26.521c2.311,0.003,4.181,1.879,4.178,4.188
	c-0.004,2.311-1.879,4.181-4.189,4.178c-2.311-0.004-4.181-1.879-4.177-4.189c0.003-2.305,1.871-4.174,4.177-4.177H46.878z
	 M46.878,33.059c-1.4-0.01-2.534-1.143-2.544-2.544c-0.031-1.371,1.054-2.509,2.425-2.54c0.04-0.001,0.08-0.001,0.119,0
	c1.401,0.01,2.534,1.143,2.544,2.544c0.072,1.333-0.949,2.472-2.282,2.544c-0.087,0.005-0.175,0.005-0.262,0V33.059z M59.821,30.275
	v-4h-1.45v4l-0.482,1.813v0.363c0,0.121,0.12,0.121,0.241,0.121h1.813c0.092-0.014,0.177-0.057,0.242-0.121
	c0-0.121,0.121-0.242,0-0.363L59.821,30.275z M13.179,26.522c-2.253,0.02-4.063,1.862-4.043,4.115
	c0.02,2.252,1.862,4.063,4.115,4.043c2.253-0.021,4.063-1.863,4.042-4.115c-0.009-1.07-0.438-2.093-1.194-2.85
	C15.323,26.946,14.272,26.516,13.179,26.522z M13.179,33.168c-1.405,0.008-2.55-1.127-2.557-2.531
	c-0.007-1.405,1.127-2.549,2.532-2.557c1.405-0.006,2.55,1.127,2.556,2.533c0,0.008,0,0.016,0,0.023
	c0.034,1.371-1.05,2.51-2.421,2.543c-0.036,0.002-0.073,0.002-0.11,0.001V33.168z"/>
<path id="Path_2" fill="#C82B22" d="M120.85,0.726V24.34c0.017,0.383-0.28,0.707-0.664,0.725c-0.021,0.001-0.041,0.001-0.062,0
	H44.109v1.088c-0.82,0.517-1.455,1.28-1.813,2.182c-0.446-0.953-1.162-1.752-2.06-2.301v-1.09H24.823
	c-0.384,0.018-0.708-0.279-0.725-0.664c-0.001-0.02-0.001-0.041,0-0.061V0.726c-0.018-0.383,0.28-0.708,0.663-0.725
	C24.782,0,24.802,0,24.823,0.001h95.3C120.488,0.121,120.85,0.351,120.85,0.726z"/>
<path id="Path_3" d="M95.907,26.521c-2.272,0-4.115,1.843-4.115,4.114c0,2.273,1.843,4.115,4.115,4.115s4.115-1.842,4.115-4.115l0,0
	C99.999,28.374,98.17,26.543,95.907,26.521z M95.907,33.168c-1.405,0-2.544-1.14-2.544-2.545c0-1.404,1.139-2.543,2.544-2.543
	s2.544,1.139,2.544,2.543c-0.044,1.389-1.155,2.506-2.544,2.557V33.168z"/>
<path id="Path_4" d="M105.351,26.521c-2.273,0-4.115,1.843-4.115,4.114c0,2.273,1.842,4.115,4.115,4.115
	c2.272,0,4.114-1.842,4.114-4.115l0,0C109.443,28.374,107.614,26.543,105.351,26.521z M105.351,33.168
	c-1.405,0-2.544-1.141-2.544-2.545s1.139-2.543,2.544-2.543c1.424,0.064,2.545,1.238,2.544,2.664
	c-0.059,1.363-1.181,2.437-2.544,2.436V33.168z"/>
<path id="Path_5" d="M98.692,26.4c0.82,0.517,1.455,1.28,1.813,2.181c0.396-0.877,1.022-1.631,1.813-2.181H98.692z"/>
<path id="Path_6" d="M93.121,26.4h-3.994c0.896,0.552,1.611,1.351,2.062,2.3C91.507,27.709,92.201,26.884,93.121,26.4L93.121,26.4z"
	/>
<path id="Path_7" d="M83.555,26.4H67.674c-0.13,0.009-0.232,0.112-0.241,0.242c0,0.121,0,0.121,0.121,0.241
	c1.206,0.838,2.066,2.086,2.421,3.511c0.009,0.13,0.111,0.233,0.241,0.241h10.78C81.007,28.862,81.989,27.235,83.555,26.4z"/>
<path id="Path_8" d="M118.79,26.273h-10.629c1.456,0.923,2.361,2.507,2.417,4.229h3.021c0.13-0.008,0.233-0.111,0.241-0.241v-1.692
	l3.391-0.242v0.242c0.009,0.13,0.112,0.233,0.242,0.242h1.088c0.13-0.009,0.233-0.112,0.242-0.242L118.79,26.273z"/>
<path id="Path_9" d="M86.341,26.521c-2.272,0-4.114,1.843-4.114,4.114c0,2.273,1.842,4.115,4.114,4.115
	c2.273,0,4.115-1.842,4.115-4.115l0,0C90.395,28.389,88.589,26.581,86.341,26.521z M86.341,33.168c-1.404,0-2.544-1.14-2.544-2.545
	c0-1.404,1.14-2.543,2.544-2.543c1.405,0,2.544,1.139,2.544,2.543c-0.043,1.389-1.155,2.506-2.544,2.557V33.168z"/>
</svg>
